<svg width="3441" height="221" viewBox="0 0 3441 221" fill="none" xmlns="http://www.w3.org/2000/svg">
<path d="M1712 42L1717.5 36L1721 34L1723.5 33.5L1725 34L1726 34.5L1726.5 35L1727 36L1729 39.5L1733 46L1737 53L1742.5 63L1748.5 76L1766.5 107.351C1775 123 1781.5 136.496 1808.74 143.955C1831.4 150.163 1847.58 136.966 1863.5 116.5C1888 85 1897.95 68.8914 1920.5 67.5C1943.17 66.1086 1966 153.236 1988.5 161.5C2040 180.417 2038.72 115.483 2061.5 99C2084.28 82.6244 2095.95 86.2661 2118.5 107.351C2141.17 128.329 2157 187.5 2181 187.5C2217.5 187.5 2215.95 83.0193 2238.5 67.5C2292 6.5 2308.83 138.799 2331.5 151C2352.26 184.092 2386.72 165.682 2409.5 177.456C2432.28 189.229 2443.76 223.225 2480.5 198.598C2503.17 176.122 2519.33 129.558 2542 116.5C2564.55 103.549 2590.45 128.814 2613 156C2636 197 2663.83 196.293 2686.5 185.376C2709.05 174.566 2711.72 136.919 2734.5 127.5C2757.28 118.081 2774.95 167.345 2797.5 156C2828.74 163 2848.5 89.5 2867 71C2912.5 30 2934.95 81.9293 2957.5 116.5C2980.17 151.071 3003.83 215.324 3026.5 218C3049.05 220.676 3059.72 179.061 3082.5 170.713C3105.28 162.364 3112.95 182.329 3135.5 198.598C3158.17 214.867 3178.83 174.195 3201.5 156C3224.05 137.805 3255.95 238.229 3278.5 218C3301.17 197.878 3327.33 127.351 3350 122C3372.55 116.649 3396.17 94.2381 3407.5 83L3440.5 29.9684V0H3429.05C3417.72 0 3394.81 0 3372.26 0C3349.6 0 3327.17 0 3304.5 0C3281.95 0 3259.05 0 3236.5 0C3213.83 0 3191.4 0 3168.74 0C3146.19 0 3123.28 0 3100.5 0C3077.72 0 3054.81 0 3032.26 0C3009.6 0 2987.17 0 2964.5 0C2941.95 0 2919.05 0 2896.5 0C2873.83 0 2851.4 0 2828.74 0C2806.19 0 2783.28 0 2760.5 0C2737.72 0 2714.81 0 2692.26 0C2669.6 0 2647.17 0 2624.5 0C2601.95 0 2579.05 0 2556.5 0C2533.83 0 2511.4 0 2488.74 0C2466.19 0 2443.28 0 2420.5 0C2397.72 0 2374.81 0 2352.26 0C2329.6 0 2307.17 0 2284.5 0C2261.95 0 2239.05 0 2216.5 0C2193.83 0 2171.4 0 2148.74 0C2126.19 0 2103.28 0 2080.5 0C2057.72 0 2034.81 0 2012.26 0C1989.6 0 1967.17 0 1944.5 0C1921.95 0 1899.05 0 1876.5 0C1853.83 0 1831.4 0 1808.74 0C1786.19 0 1763.28 0 1751.95 0H1719L1712 42Z" fill="#FFCCCC"/>
</svg>
