<svg width="1889" height="854" viewBox="0 0 1889 854" fill="none" xmlns="http://www.w3.org/2000/svg">
<rect width="1889" height="854" fill="#1E1E1E"/>
<path d="M0 63.5L23.5 108C35.5 116.5 38.7 71.1541 57.8 51.9687C77 32.7833 83.3 138.404 102.5 138C121.6 137.529 136.7 55.2835 161.5 63C203.2 201.784 231.3 14.2093 250.5 30.5C269.6 46.7907 268.7 117.404 288 113.5C307.3 109.596 313.5 68 326 49C347.8 -2.96877 372.8 58.6517 392 74C439.832 112.236 441.4 40.3902 460.5 51.9687C498 63.5 499 137.29 518.2 128C537.3 118.71 543.2 43.8283 562.5 34C576 17 587.4 84.2395 606.5 90.5C625.7 96.8278 634.5 -19.059 691.2 90.2049C710.3 89.3971 722.9 46.2468 742 51.9687C761.2 57.6907 787 138.636 806.2 128C825.3 117.297 864 63 864 44.5C890 -6.10352e-05 908.9 82.6922 928 83.5C947.2 84.3078 952.3 51.8341 971.5 48.8048C990.7 45.7755 1029 100 1029 124.5C1057.5 144 1056.3 47.1927 1075.5 44.5C1094.6 41.8073 1142 115.805 1171 48.8048C1190.3 29.4175 1191 81 1208 113.5C1247 120 1252.8 49.8819 1272 48.8048C1291.1 47.6604 1323.4 124.836 1342.5 128C1361.7 131.097 1350.8 53.4888 1370 65C1389.1 76.5785 1407.4 42.8171 1417 44.5L1440 90.2049V-6.10352e-05H1430.3C1420.7 -6.10352e-05 1401.3 -6.10352e-05 1382.2 -6.10352e-05C1363 -6.10352e-05 1344 -6.10352e-05 1324.8 -6.10352e-05C1305.7 -6.10352e-05 1286.3 -6.10352e-05 1267.2 -6.10352e-05C1248 -6.10352e-05 1229 -6.10352e-05 1209.8 -6.10352e-05C1190.7 -6.10352e-05 1171.3 -6.10352e-05 1152 -6.10352e-05C1132.7 -6.10352e-05 1113.3 -6.10352e-05 1094.2 -6.10352e-05C1075 -6.10352e-05 1056 -6.10352e-05 1036.8 -6.10352e-05C1017.7 -6.10352e-05 998.3 -6.10352e-05 979.2 -6.10352e-05C960 -6.10352e-05 941 -6.10352e-05 921.8 -6.10352e-05C902.7 -6.10352e-05 883.3 -6.10352e-05 864 -6.10352e-05C844.7 -6.10352e-05 825.3 -6.10352e-05 806.2 -6.10352e-05C787 -6.10352e-05 768 -6.10352e-05 748.8 -6.10352e-05C729.7 -6.10352e-05 710.3 -6.10352e-05 691.2 -6.10352e-05C672 -6.10352e-05 653 -6.10352e-05 633.8 -6.10352e-05C614.7 -6.10352e-05 595.3 -6.10352e-05 576 -6.10352e-05C556.7 -6.10352e-05 537.3 -6.10352e-05 518.2 -6.10352e-05C499 -6.10352e-05 480 -6.10352e-05 460.8 -6.10352e-05C441.7 -6.10352e-05 422.3 -6.10352e-05 403.2 -6.10352e-05C384 -6.10352e-05 365 -6.10352e-05 345.8 -6.10352e-05C326.7 -6.10352e-05 307.3 -6.10352e-05 288 -6.10352e-05C268.7 -6.10352e-05 249.3 -6.10352e-05 230.2 -6.10352e-05C211 -6.10352e-05 192 -6.10352e-05 172.8 -6.10352e-05C153.7 -6.10352e-05 134.3 -6.10352e-05 115.2 -6.10352e-05C96 -6.10352e-05 77 -6.10352e-05 57.8 -6.10352e-05C38.7 -6.10352e-05 19.3 -6.10352e-05 9.7 -6.10352e-05H0V63.5Z" fill="#FFCCCC"/>
</svg>
